# xmcd CD database file
#
# Track frame offsets:
#	150
#	23069
#	44439
#	61939
#	83381
#	106740
#	129202
#	147229
#	171386
#	190178
#	213032
#	235827
#	258301
#	275694
#	298548
#
# Disc length: 4282 seconds
#
# Revision: 0
# Processed by: cddbd v1.5.2PL0 Copyright (c) Steve Scherf et al.
# Submitted via: CDex 1.51
#
DISCID=ca10b80f
DTITLE=Eddie Santiago - The Best
DYEAR=2001
DGENRE=Salsa
TTITLE0=Me fallaste
TTITLE1=Tu me haces falta
TTITLE2=Nadie mejor que tu
TTITLE3=Mia
TTITLE4=Que locura enamorarme de ti
TTITLE5=Lluvia
TTITLE6=Hagamoslo
TTITLE7=Antidoto y veneno
TTITLE8=Man~ana
TTITLE9=Tu me quemas
TTITLE10=Parece que fue ayer
TTITLE11=Todo empezo
TTITLE12=Vivo para ti
TTITLE13=Te amo
TTITLE14=Somos
EXTD=YEAR: 2001
EXTT0=
EXTT1=
EXTT2=
EXTT3=
EXTT4=
EXTT5=
EXTT6=
EXTT7=
EXTT8=
EXTT9=
EXTT10=
EXTT11=
EXTT12=
EXTT13=
EXTT14=
PLAYORDER=
